<svg width="21" height="21" viewBox="0 0 21 21" fill="none" xmlns="http://www.w3.org/2000/svg">
<path d="M15.0004 0H18.4307C19.1153 0.003334 19.7706 0.278418 20.2524 0.764765C20.7342 1.25111 21.0031 1.9089 21.0001 2.5935V6.0522C21.0029 6.7369 20.7337 7.39469 20.2517 7.881C19.7697 8.36732 19.1144 8.64237 18.4297 8.6457H15.0004C14.3155 8.64265 13.6599 8.36772 13.1777 7.88137C12.6954 7.39502 12.4261 6.73708 12.4289 6.0522V2.5935C12.4261 1.90863 12.6954 1.25068 13.1777 0.764332C13.6599 0.277985 14.3155 0.00305679 15.0004 0Z" fill="#A5ACB9"/>
<path d="M2.57147 0H5.99972C6.6846 0.00305679 7.34022 0.277985 7.82243 0.764332C8.30465 1.25068 8.57397 1.90863 8.57117 2.5935V6.0522C8.57397 6.73708 8.30465 7.39502 7.82243 7.88137C7.34022 8.36772 6.6846 8.64265 5.99972 8.6457H2.57147C1.8866 8.64265 1.23097 8.36772 0.748763 7.88137C0.266551 7.39502 -0.00276941 6.73708 2.14764e-05 6.0522V2.5935C-0.00276941 1.90863 0.266551 1.25068 0.748763 0.764332C1.23097 0.277985 1.8866 0.00305679 2.57147 0Z" fill="#A5ACB9"/>
<path d="M2.57148 12.3543H5.99973C6.33893 12.3558 6.67452 12.4241 6.98732 12.5553C7.30013 12.6865 7.58403 12.8781 7.82281 13.119C8.06159 13.3599 8.25058 13.6455 8.37899 13.9595C8.50739 14.2735 8.5727 14.6097 8.57118 14.9489V18.4065C8.57397 19.0914 8.30465 19.7493 7.82244 20.2357C7.34023 20.722 6.6846 20.997 5.99973 21H2.57148C1.8866 20.997 1.23098 20.722 0.748767 20.2357C0.266555 19.7493 -0.00276495 19.0914 2.59406e-05 18.4065V14.9489C-0.00149422 14.6097 0.0638128 14.2735 0.192218 13.9595C0.320624 13.6455 0.509613 13.3599 0.748395 13.119C0.987177 12.8781 1.27108 12.6865 1.58388 12.5553C1.89669 12.4241 2.23227 12.3558 2.57148 12.3543Z" fill="#A5ACB9"/>
<path d="M15.0004 12.3543H18.4307C19.1154 12.3579 19.7707 12.6332 20.2524 13.1198C20.7342 13.6063 21.0031 14.2642 21.0001 14.9489V18.4065C21.0016 18.7456 20.9363 19.0816 20.808 19.3955C20.6796 19.7093 20.4907 19.9948 20.252 20.2356C20.0133 20.4764 19.7295 20.6679 19.4169 20.7991C19.1042 20.9302 18.7687 20.9985 18.4297 21H15.0004C14.3155 20.997 13.6599 20.722 13.1777 20.2357C12.6954 19.7493 12.4261 19.0914 12.4289 18.4065V14.9489C12.4274 14.6097 12.4927 14.2735 12.6211 13.9595C12.7495 13.6455 12.9385 13.3599 13.1773 13.119C13.4161 12.8781 13.7 12.6865 14.0128 12.5553C14.3256 12.4241 14.6612 12.3558 15.0004 12.3543Z" fill="#A5ACB9"/>
</svg>
