<svg width="14" height="15" viewBox="0 0 14 15" fill="none" xmlns="http://www.w3.org/2000/svg">
<path d="M3.96094 0.518555L3.75 0.9375H0.9375C0.418945 0.9375 0 1.35645 0 1.875C0 2.39355 0.418945 2.8125 0.9375 2.8125H12.1875C12.7061 2.8125 13.125 2.39355 13.125 1.875C13.125 1.35645 12.7061 0.9375 12.1875 0.9375H9.375L9.16406 0.518555C9.00586 0.199219 8.68066 0 8.32617 0H4.79883C4.44434 0 4.11914 0.199219 3.96094 0.518555ZM12.1875 3.75H0.9375L1.55859 13.6816C1.60547 14.4229 2.2207 15 2.96191 15H10.1631C10.9043 15 11.5195 14.4229 11.5664 13.6816L12.1875 3.75Z" fill="#D92728"/>
</svg>
