<svg width="24" height="21" viewBox="0 0 24 21" fill="none" xmlns="http://www.w3.org/2000/svg">
<path d="M2.23125 12.3861L10.7016 20.4772C11.0531 20.813 11.5172 21 12 21C12.4828 21 12.9469 20.813 13.2984 20.4772L21.7687 12.3861C23.1938 11.0288 24 9.12468 24 7.13426V6.85609C24 3.50356 21.6328 0.645042 18.4031 0.0934824C16.2656 -0.271027 14.0906 0.443603 12.5625 2.00716L12 2.5827L11.4375 2.00716C9.90938 0.443603 7.73438 -0.271027 5.59688 0.0934824C2.36719 0.645042 0 3.50356 0 6.85609V7.13426C0 9.12468 0.80625 11.0288 2.23125 12.3861Z" fill="#A5ACB9"/>
</svg>
