<svg width="17" height="21" viewBox="0 0 17 21" fill="none" xmlns="http://www.w3.org/2000/svg">
<path d="M8.04597 0.969971C4.73597 0.969971 2.04597 3.65997 2.04597 6.96997V9.85997C2.04597 10.47 1.78597 11.4 1.47597 11.92L0.325967 13.83C-0.384033 15.01 0.105967 16.32 1.40597 16.76C5.71597 18.2 10.366 18.2 14.676 16.76C15.886 16.36 16.416 14.93 15.756 13.83L14.606 11.92C14.306 11.4 14.046 10.47 14.046 9.85997V6.96997C14.046 3.66997 11.346 0.969971 8.04597 0.969971Z" fill="#A5ACB9"/>
<path d="M9.89604 1.26C9.58604 1.17 9.26604 1.1 8.93604 1.06C7.97604 0.94 7.05604 1.01 6.19604 1.26C6.48604 0.52 7.20605 0 8.04605 0C8.88605 0 9.60604 0.52 9.89604 1.26Z" fill="#A5ACB9"/>
<path d="M11.046 17.1201C11.046 18.7701 9.69602 20.1201 8.04602 20.1201C7.22602 20.1201 6.46602 19.7801 5.92602 19.2401C5.38602 18.7001 5.04602 17.9401 5.04602 17.1201" fill="#A5ACB9"/>
</svg>
