<svg width="25" height="22" viewBox="0 0 25 22" fill="none" xmlns="http://www.w3.org/2000/svg">
<path d="M0 1.03125C0 0.459766 0.468382 0 1.05058 0H3.04229C4.00532 0 4.85891 0.55 5.25726 1.375H23.2484C24.3996 1.375 25.2401 2.44922 24.938 3.54063L23.1433 10.0848C22.7712 11.434 21.5237 12.375 20.101 12.375H7.47222L7.7086 13.5996C7.8049 14.0852 8.23826 14.4375 8.74166 14.4375H21.3617C21.9439 14.4375 22.4123 14.8973 22.4123 15.4688C22.4123 16.0402 21.9439 16.5 21.3617 16.5H8.74166C7.22708 16.5 5.927 15.443 5.64684 13.9863L3.38811 2.3418C3.35746 2.17852 3.21301 2.0625 3.04229 2.0625H1.05058C0.468382 2.0625 0 1.60273 0 1.03125ZM5.60307 19.9375C5.60307 19.6666 5.65742 19.3984 5.76301 19.1482C5.8686 18.898 6.02337 18.6706 6.21848 18.4791C6.41359 18.2876 6.64522 18.1356 6.90015 18.032C7.15507 17.9283 7.42829 17.875 7.70422 17.875C7.98015 17.875 8.25337 17.9283 8.5083 18.032C8.76322 18.1356 8.99485 18.2876 9.18996 18.4791C9.38507 18.6706 9.53984 18.898 9.64543 19.1482C9.75102 19.3984 9.80537 19.6666 9.80537 19.9375C9.80537 20.2084 9.75102 20.4766 9.64543 20.7268C9.53984 20.977 9.38507 21.2044 9.18996 21.3959C8.99485 21.5874 8.76322 21.7394 8.5083 21.843C8.25337 21.9467 7.98015 22 7.70422 22C7.42829 22 7.15507 21.9467 6.90015 21.843C6.64522 21.7394 6.41359 21.5874 6.21848 21.3959C6.02337 21.2044 5.8686 20.977 5.76301 20.7268C5.65742 20.4766 5.60307 20.2084 5.60307 19.9375ZM20.3111 17.875C20.8684 17.875 21.4028 18.0923 21.7969 18.4791C22.1909 18.8659 22.4123 19.3905 22.4123 19.9375C22.4123 20.4845 22.1909 21.0091 21.7969 21.3959C21.4028 21.7827 20.8684 22 20.3111 22C19.7539 22 19.2194 21.7827 18.8254 21.3959C18.4313 21.0091 18.21 20.4845 18.21 19.9375C18.21 19.3905 18.4313 18.8659 18.8254 18.4791C19.2194 18.0923 19.7539 17.875 20.3111 17.875Z" fill="#A5ACB9"/>
</svg>
